<svg xmlns="http://www.w3.org/2000/svg" version="1.1" xmlns:xlink="http://www.w3.org/1999/xlink" xmlns:svgjs="http://svgjs.dev/svgjs" width="1000" height="623" viewBox="0 0 1000 623"><g transform="matrix(1,0,0,1,-0.6060606060606233,0.2522267206477409)"><svg viewBox="0 0 396 247" data-background-color="#111111" preserveAspectRatio="xMidYMid meet" height="623" width="1000" xmlns="http://www.w3.org/2000/svg" xmlns:xlink="http://www.w3.org/1999/xlink"><g id="tight-bounds" transform="matrix(1,0,0,1,0.2400000000000091,-0.09999999999999432)"><svg viewBox="0 0 395.52 247.2" height="247.2" width="395.52"><g><svg></svg></g><g><svg viewBox="0 0 395.52 247.2" height="247.2" width="395.52"><g transform="matrix(1,0,0,1,75.54432,54.888513459283374)"><svg viewBox="0 0 244.43135999999998 137.42297308143324" height="137.42297308143324" width="244.43135999999998"><g><svg viewBox="0 0 244.43135999999998 137.42297308143324" height="137.42297308143324" width="244.43135999999998"><g><svg viewBox="0 0 244.43135999999998 137.42297308143324" height="137.42297308143324" width="244.43135999999998"><g><svg viewBox="0 0 244.43135999999998 137.42297308143324" height="137.42297308143324" width="244.43135999999998"><g id="textblocktransform"><svg viewBox="0 0 244.43135999999998 137.42297308143324" height="137.42297308143324" width="244.43135999999998" id="textblock"><g><svg viewBox="0 0 244.43135999999998 137.42297308143324" height="137.42297308143324" width="244.43135999999998"><g transform="matrix(1,0,0,1,0,0)"><svg width="244.43135999999998" viewBox="1.350000023841858 -42.29999923706055 76.75 43.14999771118164" height="137.42297308143324" data-palette-color="#8d021f"><path d="M30.3 0L26.2-11.05 10.4-11.05 6.35 0 1.35 0 15.6-38.35 21-38.35 35.3 0 30.3 0ZM12.05-15.4L24.55-15.4 18.3-32.3 12.05-15.4ZM59.7-42.3L64.4-42.3 64.4 0 59.7 0 59.7-2.5Q55.75 0.85 51.7 0.85L51.7 0.85Q46.1 0.85 42.75-2.9 39.4-6.65 39.4-13.8L39.4-13.8Q39.4-20.95 42.75-24.7 46.1-28.45 51.7-28.45L51.7-28.45Q55.7-28.45 59.7-25.05L59.7-25.05 59.7-42.3ZM52.3-3.5Q55.9-3.5 59.7-6.6L59.7-6.6 59.7-20.95Q56-24.05 52.3-24.05L52.3-24.05Q48.35-24.05 46.32-21.45 44.3-18.85 44.3-13.8L44.3-13.8Q44.3-8.75 46.32-6.13 48.35-3.5 52.3-3.5L52.3-3.5ZM73.4-32.85L73.4-40.4 78.1-40.4 78.1-32.85 73.4-32.85ZM73.4 0L73.4-27.65 78.1-27.65 78.1 0 73.4 0Z" opacity="1" transform="matrix(1,0,0,1,0,0)" fill="#8d021f" class="undefined-text-0" data-fill-palette-color="primary" id="text-0"></path></svg></g></svg></g></svg></g></svg></g></svg></g></svg></g></svg></g><path d="M249.876 48.889L249.876 4.13 10.936 4.13 10.936 243.07 249.876 243.07 249.876 198.311 237.483 198.311 237.483 230.677 23.329 230.677 23.329 16.523 237.483 16.523 237.483 48.889Z" fill="#8d021f" stroke="transparent" data-fill-palette-color="primary"></path></svg></g><defs></defs></svg><rect width="395.52" height="247.2" fill="none" stroke="none" visibility="hidden"></rect></g></svg></g></svg>